PathFileType	4	(X/Y/Z)	C:/Users/beibeiliu/ov580/test_trc\sequence.23_training_dense_right.trc
DataRate	CameraRate	NumFrames	NumMarkers	Units	OrigDataRate	OrigDataStartFrame	OrigNumFrames
120	120	22	19	mm	120	73	289
Frame#	Time	ThumbCMC			ThumbMCP			ThumbIP			ThumbTip			IndexMCP			IndexPIP			IndexTip			MiddleMCP			MiddlePIP			MiddleTip			RingMCP			RingPIP			RingTip			PinkyMCP			PinkyPIP			PinkyTip			BackHand1			BackHand2			BackHand3	
		X0	Y0	Z0	X1	Y1	Z1	X2	Y2	Z2	X3	Y3	Z3	X4	Y4	Z4	X5	Y5	Z5	X6	Y6	Z6	X7	Y7	Z7	X8	Y8	Z8	X9	Y9	Z9	X10	Y10	Z10	X11	Y11	Z11	X12	Y12	Z12	X13	Y13	Z13	X14	Y14	Z14	X15	Y15	Z15	X16	Y16	Z16	X17	Y17	Z17	X18	Y18	Z18	
72	0.6	219.171	-28.2566	38.7162	236.46	-18.565	15.9065	246.877	-14.7498	-3.52902	259.444	-10.34	-17.4791	211.227	-15.7572	-25.5977	211.953	12.7654	-14.1211	210.792	-2.3826	10.7844	195.076	-4.97442	-25.1296	197.939	18.4792	-8.61981	202.113	0.392991	16.2228	179.274	-5.35165	-21.2272	189.656	15.8137	-6.08747	187.453	0.328955	17.6473	159.418	-16.3184	-16.2016	160.763	-2.39801	-35.2706	157.952	9.19522	-50.7687	171.216	-41.6774	13.854	171.729	-44.5623	37.6159	200.513	-46.7518	23.624	
73	0.608333	219.242	-29.5538	35.6891	238.835	-19.3647	20.0335	246.462	-14.9066	-0.528339	258.756	-12.5202	-14.2863	213.103	-15.3254	-25.6029	217.208	11.27	-15.8394	213.41	0.746579	11.2775	196.067	-6.72646	-25.0652	199.058	17.0417	-12.1015	201.409	0.799433	16.3996	180.034	-6.32151	-20.1081	186.35	17.707	-4.57646	188.032	0.0956588	17.9882	157.545	-15.0079	-15.3015	156.17	-2.26526	-32.3713	157.597	8.57664	-50.7812	173.391	-39.9811	12.9199	173.245	-44.1341	41.8903	199.439	-46.7097	28.0848	
74	0.616667	218.937	-28.9662	37.9248	235.503	-19.6031	17.4676	246.097	-15.6284	0.996033	257.581	-12.3205	-15.1412	213.1	-16.1024	-24.3032	215.402	11.3927	-14.6011	209.594	-0.0176878	10.9469	196.085	-6.81883	-24.0626	197.865	16.9966	-8.77218	198.673	1.09041	17.6973	178.338	-7.16321	-19.8718	187.024	16.3491	-2.48101	188.889	2.60571	17.4932	157.095	-15.8005	-14.3994	156.932	-2.58773	-33.523	160.182	7.79907	-49.3081	169.977	-40.2633	13.0478	172.748	-44.414	43.6595	198.38	-48.2298	24.9636	
75	0.625	220.095	-30.8865	37.6077	237.2	-21.0936	21.5573	248.469	-17.03	3.56851	262.503	-14.9013	-14.1172	213.33	-15.2733	-24.7374	215.276	9.3073	-15.0723	214.693	-1.62717	12.4057	197.455	-11.2332	-23.2015	202.375	15.989	-7.84955	200.968	-5.45467	18.3961	178.866	-3.47581	-21.4226	188.693	14.8292	-9.17213	189.374	1.01539	16.5506	156.913	-17.1016	-12.9268	155.681	-6.21022	-28.5884	157.256	6.58167	-47.6512	169.585	-41.2828	14.0778	172.387	-44.362	43.2522	199.67	-50.8834	25.7249	
76	0.633333	219.97	-31.7592	39.0247	238.245	-22.6867	16.9186	248.237	-17.699	1.23053	263.6	-14.6016	-11.7945	210.663	-19.1042	-24.1355	218.396	8.86014	-16.4576	211.604	-4.45325	13.4048	197.603	-9.30901	-23.9763	201.082	15.9477	-7.44044	202.787	-3.63139	16.7819	180.604	-7.51983	-20.1696	189.435	15.616	-5.50204	190.281	0.860864	16.4177	158.967	-17.0728	-13.9252	157.49	-6.55322	-29.5734	160.795	5.63237	-49.1018	172.289	-41.1188	18.4892	169.726	-46.6093	40.1361	197.222	-50.1236	30.4863	
77	0.641667	221.867	-32.707	37.4991	235.469	-21.2945	19.4889	249.15	-18.7632	1.95124	263.205	-14.3811	-12.9219	216.135	-15.2052	-26.8047	216.837	8.7827	-15.0411	211.413	-2.82999	12.2104	196.508	-7.68243	-23.7179	204.218	14.5489	-8.82195	200.076	-5.58658	17.3889	178.169	-2.23624	-22.3911	190.926	13.6931	-8.5563	193.482	1.45967	15.4341	155.233	-14.9926	-14.1299	155.92	-2.8653	-31.1265	158.736	10.7485	-48.253	172.427	-40.7017	14.4372	170.421	-44.683	39.2617	195.592	-48.8986	26.7123	
78	0.65	223.25	-32.7845	38.3765	238.944	-21.8573	21.2611	253.216	-19.0816	-2.92817	261.06	-14.2524	-17.9943	212.547	-17.0516	-24.116	218.291	10.0891	-15.519	212.497	-2.63666	12.0968	195.987	-10.2771	-22.9475	199.176	16.0915	-7.48155	201.278	-4.98231	17.3359	178.016	-3.2161	-20.6212	187.496	16.9853	-4.63521	190.967	0.124267	16.8452	156.289	-13.2394	-17.0715	154.964	-2.95883	-28.8566	159.459	8.22951	-46.1315	173.546	-43.2023	14.7694	175.839	-48.3967	41.946	198.006	-49.0835	24.9096	
79	0.658333	224.501	-31.1011	35.2401	240.643	-21.843	17.9569	248.797	-16.2298	1.46498	259.775	-13.3577	-17.2083	215.661	-11.4766	-26.5264	213.633	12.3468	-12.9613	216.611	-3.08501	11.9389	197.61	-7.97175	-23.3127	201.142	16.956	-7.69729	203.507	-8.69238	17.3587	179.938	-6.09621	-19.3131	189.851	17.0413	-5.22237	190.979	-0.8929	17.7301	155.241	-13.1235	-15.8582	159.938	-2.91705	-29.7532	156.942	12.368	-45.9547	174.846	-42.6787	16.0359	178.158	-47.7639	39.2608	201.414	-47.6645	26.376	
80	0.666667	225.862	-30.5847	35.7884	242.02	-19.7548	14.7704	251.808	-14.5953	-1.93153	265.855	-10.7433	-15.0041	211.528	-9.42687	-27.4109	215.356	14.3188	-13.3424	215.267	-2.24725	12.1257	195.451	-3.75244	-22.6446	198.685	19.148	-5.38857	204.719	-3.93833	17.2693	178.946	-4.14095	-19.511	188.928	17.347	-6.57548	193.325	1.46476	17.5977	158.766	-13.564	-14.6222	156.69	1.52589	-29.4501	157.429	17.1811	-44.3173	177.557	-41.745	15.6914	179.134	-45.7212	40.0567	203.167	-46.2242	25.8581	
81	0.675	228.011	-28.3428	34.0154	242.363	-16.7154	15.3287	254.122	-12.6018	-2.21498	261.839	-7.82402	-17.7724	215.731	-7.25106	-27.3847	216.73	15.8025	-12.9322	217.733	-2.59338	12.5936	194.172	0.537456	-23.9452	199.668	19.6442	-2.81653	206.662	-2.73058	16.6698	178.589	0.00136476	-19.5492	191.487	19.2089	-3.62289	191.274	2.26074	19.7983	158.542	-10.9546	-14.7608	155.712	2.81735	-27.4804	156.481	15.2501	-42.3151	178.399	-40.1548	17.3577	178.094	-45.9464	41.5926	201.354	-45.5878	24.077	
82	0.683333	233.403	-26.7552	31.6483	244.797	-14.6756	13.7439	253.562	-9.17307	-6.2503	265.015	-3.91999	-20.3708	213.112	-3.0455	-27.0701	215.648	18.6207	-13.9683	216.434	3.35773	10.1927	197.477	0.0558206	-23.0731	204.519	23.1677	-8.52507	208.402	-2.04869	17.9182	181.486	3.08984	-18.926	193.135	19.8485	-1.37115	195.4	4.73335	18.2096	160.682	-11.7408	-11.9084	156.23	4.02182	-25.8265	156.901	15.6603	-39.8379	179.136	-38.7266	11.8219	183.855	-46.3417	37.1285	206.482	-43.396	20.2639	
83	0.691667	232.834	-24.9878	32.1433	248.905	-11.2799	11.8393	256.856	-5.14034	-5.08717	267.423	1.08863	-21.0088	214.675	-3.06058	-27.3365	218.575	22.112	-11.732	222.874	2.52975	11.5146	196.659	1.63655	-22.9946	203.121	25.0104	-6.38132	210.724	4.00717	17.7107	184.381	1.19591	-17.0171	190.674	22.0224	-2.45887	200.849	2.67286	18.7712	161.732	-8.16489	-14.13	159.219	6.40178	-27.0665	156.829	17.5259	-38.5237	181.107	-39.1162	12.9276	185.311	-45.1814	41.0869	209.774	-44.419	19.8976	
84	0.7	236.8	-23.0546	30.5959	247.682	-8.59323	10.8228	260.062	-0.135688	-8.09496	266.323	7.45886	-20.846	220.953	2.29942	-28.5743	216.937	23.7752	-10.8478	222.352	4.8016	11.4536	200.795	2.96409	-21.7963	205.185	27.5785	-2.26964	210.709	4.01452	20.1333	186.947	6.63741	-17.0709	190.231	24.3074	3.00963	203.186	4.20913	18.7023	163.312	-10.8577	-8.11634	156.217	5.24519	-20.8292	158.07	19.8852	-34.4693	189.923	-37.8648	9.49875	191.41	-45.6868	36.4324	212.604	-41.4684	17.7379	
85	0.708333	239.585	-20.376	27.6347	251.304	-3.99025	11.2718	256.559	6.06258	-8.3275	267.962	15.4785	-20.9156	218.423	3.83268	-26.0211	216.333	27.9665	-10.7785	222.61	7.43357	12.6624	201.131	9.97748	-21.7133	201.144	30.0207	-3.23547	213.6	5.75243	20.6779	181.716	8.91612	-12.1481	192.887	24.894	3.21343	200.634	3.8172	23.2353	162.781	-7.50142	-8.21644	156.194	6.14772	-17.3734	156.537	26.044	-30.2634	192.751	-37.1145	13.3929	196.771	-44.6676	40.1496	216.6	-40.848	21.1864	
86	0.716667	243.767	-17.3076	26.115	254.182	1.03069	12.4428	259.287	12.8853	-9.74371	265.189	23.8846	-20.3242	214.969	9.80961	-26.2264	212.676	29.9217	-11.1066	220.319	8.29229	13.6565	195.999	9.5759	-19.0286	199.675	31.7096	1.81925	214.786	7.53471	20.1378	180.177	10.9995	-9.32533	193.619	25.1232	8.2072	205.472	2.93592	21.016	163.235	-8.67272	-3.17808	155.273	6.54243	-14.9124	150.76	22.3934	-23.9043	193.401	-35.1613	13.0101	200.59	-47.4886	38.1006	220.401	-39.1891	16.2136	
87	0.725	245.272	-13.8964	28.9324	250.971	6.42956	8.29351	255.646	20.4787	-9.79567	257.633	32.7075	-24.7435	209.99	11.0488	-23.7923	208.094	32.2292	-8.6215	222.969	16.7989	14.0928	193.852	12.6171	-16.6196	198.436	32.6465	2.14255	211.077	11.802	23.2384	179.328	8.78259	-6.9112	187.756	24.8426	12.5981	203.459	6.03076	24.2111	160.581	-11.921	2.99102	152.216	2.96644	-7.4637	142.633	21.8212	-14.8464	195.628	-38.1247	16.7393	205.815	-44.4557	38.1214	224.172	-36.2296	20.2507	
88	0.733333	246.387	-8.87827	29.8733	250.583	13.7408	10.8718	247.378	25.8306	-6.42571	245.11	39.1496	-22.4709	205.757	11.3415	-20.9814	200.812	33.3201	-2.56268	219.452	16.7974	15.5709	186.477	10.462	-12.6147	188.57	31.6025	5.36961	210.641	13.624	24.9662	178.4	7.84976	-4.32679	185.977	23.3654	15.0748	201.128	2.17344	28.4375	162.944	-17.6345	5.3787	146.488	-3.50302	-1.67247	134.993	13.7447	-10.2855	200.038	-34.7809	14.1926	212.669	-44.135	36.048	228.488	-33.261	17.4435	
89	0.741667	243.489	-2.86229	23.9293	243.355	19.04	10.6596	240.512	33.2345	-8.92537	235.294	44.4697	-19.8875	201.755	13.3477	-19.688	196.048	35.0524	-5.30006	211.352	18.4346	19.1727	183.858	7.18656	-10.0869	184.724	30.7884	8.90265	208.148	14.0662	24.5413	173.711	4.17506	-1.61713	177.281	19.7726	16.9612	200.202	6.21622	26.9593	159.942	-22.7869	10.9375	147.624	-13.4645	2.99769	131.383	-4.17424	-3.05275	201.814	-37.8108	18.8004	214.522	-44.2272	37.9316	231.048	-29.2665	13.751	
90	0.75	243.906	3.77844	25.1097	238.187	25.4081	6.7977	230.669	38.013	-12.1197	225.098	51.2504	-23.5214	196.986	15.7599	-20.921	185.734	31.2092	-2.57788	206.273	23.4978	17.9818	180.499	3.02666	-9.54208	177.401	27.6175	8.72347	200.401	16.7344	27.1759	169.636	-4.13786	1.92235	176.064	16.9352	19.9974	197.595	1.90153	28.5647	163.29	-28.0678	13.0941	144.792	-22.1467	9.42768	131.292	-16.1755	1.53692	205.407	-35.5059	15.4043	225.03	-40.2535	39.8785	233.891	-24.8752	13.3342	
91	0.758333	238.271	6.55601	23.2614	230.714	29.3283	4.02898	220.404	39.4062	-7.46193	213.859	52.4727	-22.8226	188.981	11.1408	-18.9664	180.553	31.0801	-0.125861	201.33	22.1934	17.4154	175.674	1.62453	-8.59566	171.813	24.1961	12.5912	197.807	14.6934	26.2101	166.905	-6.31389	2.0905	170.097	12.9903	23.004	193.943	3.83256	27.409	163.296	-34.5634	17.8004	144.71	-29.1958	10.4591	131.055	-28.097	4.619	206.501	-36.6135	15.7164	225.866	-39.2598	38.6953	234.153	-20.7159	15.4728	
92	0.766667	233.383	12.9102	18.1956	219.212	29.7531	5.28029	209.917	43.1026	-10.3143	197.17	49.9831	-23.0334	183.747	11.5698	-19.8455	172.206	29.0323	0.0254523	194.72	20.6513	16.9416	170.753	-1.32023	-8.23998	166.188	21.3092	11.6565	190.769	12.2367	27.5916	164.741	-9.84838	3.32765	162.185	8.49699	20.551	192.328	-0.799568	29.2833	161.71	-39.2006	16.5575	150.213	-36.7653	11.8834	130.255	-38.6052	5.05323	207.934	-36.0382	16.6587	228.11	-36.6832	38.4116	230.969	-16.2292	13.8051	
93	0.775	228.976	16.5264	16.0667	212.946	35.4598	3.26377	196.615	42.1973	-15.1036	186.039	53.2553	-25.3104	177.902	8.14098	-20.1042	164.702	26.3456	-2.95775	189.968	18.733	15.3978	169.087	-3.74347	-8.67395	160.989	15.9843	16.4209	191.363	12.5399	23.4521	161.279	-13.5406	5.36323	159.449	4.84438	20.7497	186.005	5.31894	26.9269	165.489	-41.0682	17.3032	149.829	-43.3975	14.495	131.626	-46.5258	7.79707	206.825	-35.9225	15.8325	231.572	-28.1007	35.5974	229.013	-14.138	7.46579	
